<svg width="512" height="512" viewBox="0 0 512 512" fill="none" xmlns="http://www.w3.org/2000/svg">
  <defs>
    <linearGradient id="bg" x1="96" y1="64" x2="420" y2="448" gradientUnits="userSpaceOnUse">
      <stop offset="0" stop-color="#F8E1B8"/>
      <stop offset="0.48" stop-color="#F5E9D8"/>
      <stop offset="1" stop-color="#B9D8EA"/>
    </linearGradient>

    <filter id="softShadow" x="-20%" y="-20%" width="140%" height="140%">
      <feDropShadow dx="0" dy="18" stdDeviation="20" flood-color="#000000" flood-opacity="0.18"/>
    </filter>
  </defs>

  <rect width="512" height="512" rx="112" fill="url(#bg)"/>

  <circle cx="256" cy="256" r="150" fill="white" fill-opacity="0.28"/>
  <circle cx="256" cy="256" r="118" stroke="#171717" stroke-opacity="0.18" stroke-width="10"/>

  <g filter="url(#softShadow)">
    <path d="M316 98L270 278L196 414L242 234L316 98Z" fill="#171717"/>
    <path d="M196 414L242 234L316 98L270 278L196 414Z" fill="#171717"/>
    <path d="M242 234L316 98L270 278L242 234Z" fill="#2F3338"/>
    <circle cx="256" cy="256" r="24" fill="#F7F0E4"/>
    <circle cx="256" cy="256" r="10" fill="#171717"/>
  </g>

  <circle cx="124" cy="170" r="8" fill="#171717" fill-opacity="0.34"/>
  <circle cx="378" cy="154" r="6" fill="#171717" fill-opacity="0.34"/>
  <circle cx="392" cy="334" r="7" fill="#171717" fill-opacity="0.28"/>
  <circle cx="134" cy="348" r="5" fill="#171717" fill-opacity="0.28"/>

  <path d="M380 72L390 101L419 111L390 121L380 150L370 121L341 111L370 101L380 72Z" fill="#F2B84B"/>
  <path d="M116 254L122 270L138 276L122 282L116 298L110 282L94 276L110 270L116 254Z" fill="#F2B84B"/>
  <path d="M412 250L417 263L430 268L417 273L412 286L407 273L394 268L407 263L412 250Z" fill="#F2B84B"/>

  <circle cx="256" cy="256" r="202" stroke="white" stroke-opacity="0.34" stroke-width="2"/>
</svg>
